<svg xmlns="http://www.w3.org/2000/svg" viewBox="0 0 640 420" fill="none">
  <rect width="640" height="420" rx="40" fill="rgb(255 255 255 / 0.8)" />
  <rect x="110" y="90" width="420" height="240" rx="28" fill="rgb(248 250 252)" stroke="rgb(13 148 136 / 0.18)" stroke-width="4" />
  <path d="M158 248c50-44 112-72 168-58 34 8 58 32 92 34 28 2 52-12 72-30 12-10 22-22 40-28" stroke="rgb(15 118 110 / 0.24)" stroke-linecap="round" stroke-width="10" />
  <path d="M184 274c46-34 90-62 130-58 46 6 76 46 130 40 22-2 44-12 80-44" stroke="rgb(8 145 178 / 0.2)" stroke-linecap="round" stroke-width="10" />
  <path d="M240 168c0-44 36-80 80-80s80 36 80 80c0 66-80 122-80 122s-80-56-80-122Z" fill="rgb(13 148 136)" />
  <circle cx="320" cy="168" r="34" fill="rgb(240 253 250)" />
  <circle cx="320" cy="168" r="14" fill="rgb(15 118 110)" />
  <rect x="188" y="340" width="264" height="20" rx="10" fill="rgb(231 229 228)" />
</svg>
