<svg xmlns="http://www.w3.org/2000/svg" viewBox="0 0 1600 900" fill="none">
  <rect width="1600" height="900" fill="rgb(248 250 252)" />
  <g opacity=".75">
    <path d="M-120 190C140 30 430 20 690 140c280 130 520 118 970-54" stroke="rgb(13 148 136 / 0.18)" stroke-width="3" />
    <path d="M-90 275c258-144 522-160 778-54 273 114 497 112 912 6" stroke="rgb(15 118 110 / 0.14)" stroke-width="3" />
    <path d="M-64 360c236-124 504-132 748-44 292 106 512 102 906-10" stroke="rgb(8 145 178 / 0.12)" stroke-width="3" />
    <path d="M-40 445c230-112 500-110 742-28 296 102 526 88 908-26" stroke="rgb(13 148 136 / 0.12)" stroke-width="3" />
    <path d="M-16 530c214-94 468-86 706-10 302 96 536 74 900-30" stroke="rgb(15 118 110 / 0.1)" stroke-width="3" />
    <path d="M18 614c198-82 430-62 666 8 296 88 546 64 878-22" stroke="rgb(8 145 178 / 0.1)" stroke-width="3" />
  </g>
  <circle cx="1190" cy="214" r="204" fill="rgb(45 212 191 / 0.18)" />
  <circle cx="1288" cy="168" r="112" fill="rgb(255 255 255 / 0.86)" />
  <circle cx="286" cy="170" r="152" fill="rgb(186 230 253 / 0.22)" />
  <path d="M1110 690c-152-72-294-82-420-40-122 40-220 40-350 4-112-30-228-28-340 20V900h1600V540c-170 120-328 166-490 150Z" fill="rgb(15 118 110 / 0.06)" />
</svg>
